<?xml version="1.0" encoding="UTF-8" standalone="no"?><!DOCTYPE svg PUBLIC "-//W3C//DTD SVG 1.1//EN" "http://www.w3.org/Graphics/SVG/1.1/DTD/svg11.dtd"><svg width="100%" height="100%" viewBox="0 0 501 501" version="1.1" xmlns="http://www.w3.org/2000/svg" xmlns:xlink="http://www.w3.org/1999/xlink" xml:space="preserve" xmlns:serif="http://www.serif.com/" style="fill-rule:evenodd;clip-rule:evenodd;stroke-linejoin:round;stroke-miterlimit:2;"><rect id="keyboard-shortcuts" x="0.078" y="0.253" width="500" height="500" style="fill:none;"/><clipPath id="_clip1"><rect x="0.078" y="0.253" width="500" height="500"/></clipPath><g clip-path="url(#_clip1)"><circle cx="250.078" cy="250.253" r="250" style="fill:#8499a4;"/><clipPath id="_clip2"><circle cx="250.078" cy="250.253" r="250"/></clipPath><g clip-path="url(#_clip2)"><path d="M402,332.537l-73.855,-73.854l105.023,-105.023l138.344,138.344l-85.398,85.397l113.495,60.535l-171.738,166.149l-361.543,-269.941l169.021,-90.492l166.651,88.885Z" style="fill:#103b50;"/></g><g><path d="M425.8,337.144l-351.444,0c-6.075,0 -11.028,-4.923 -11.028,-11.029l0,-164.927c0,-6.075 4.922,-11.028 11.028,-11.028l351.444,0c6.075,0 11.029,4.922 11.029,11.028l0,164.958c0,6.075 -4.954,10.998 -11.029,10.998Z" style="fill:#416273;fill-rule:nonzero;"/><g><path d="M107.659,200.255l-14.611,0c-2.835,0 -5.14,-2.306 -5.14,-5.141l0,-14.642c0,-2.835 2.305,-5.14 5.14,-5.14l14.611,0c2.835,0 5.141,2.305 5.141,5.14l0,14.642c0,2.835 -2.306,5.141 -5.141,5.141Z" style="fill:#c9cfd2;fill-rule:nonzero;"/><path d="M143.299,200.255l-14.611,0c-2.835,0 -5.14,-2.306 -5.14,-5.141l0,-14.642c0,-2.835 2.305,-5.14 5.14,-5.14l14.611,0c2.835,0 5.14,2.305 5.14,5.14l0,14.642c0,2.835 -2.305,5.141 -5.14,5.141Z" style="fill:#c9cfd2;fill-rule:nonzero;"/><path d="M178.939,200.255l-14.611,0c-2.835,0 -5.141,-2.306 -5.141,-5.141l0,-14.642c0,-2.835 2.306,-5.14 5.141,-5.14l14.611,0c2.835,0 5.14,2.305 5.14,5.14l0,14.642c0,2.835 -2.305,5.141 -5.14,5.141Z" style="fill:#c9cfd2;fill-rule:nonzero;"/><path d="M214.579,200.255l-14.611,0c-2.835,0 -5.141,-2.306 -5.141,-5.141l0,-14.642c0,-2.835 2.306,-5.14 5.141,-5.14l14.611,0c2.835,0 5.14,2.305 5.14,5.14l0,14.642c0,2.835 -2.305,5.141 -5.14,5.141Z" style="fill:#c9cfd2;fill-rule:nonzero;"/><path d="M250.218,200.255l-14.611,0c-2.835,0 -5.14,-2.306 -5.14,-5.141l0,-14.642c0,-2.835 2.305,-5.14 5.14,-5.14l14.611,0c2.835,0 5.141,2.305 5.141,5.14l0,14.642c0,2.835 -2.306,5.141 -5.141,5.141Z" style="fill:#c9cfd2;fill-rule:nonzero;"/><path d="M285.858,200.255l-14.611,0c-2.835,0 -5.14,-2.306 -5.14,-5.141l0,-14.642c0,-2.835 2.305,-5.14 5.14,-5.14l14.611,0c2.835,0 5.14,2.305 5.14,5.14l0,14.642c0,2.835 -2.305,5.141 -5.14,5.141Z" style="fill:#c9cfd2;fill-rule:nonzero;"/><path d="M321.498,200.255l-14.611,0c-2.835,0 -5.141,-2.306 -5.141,-5.141l0,-14.642c0,-2.835 2.306,-5.14 5.141,-5.14l14.611,0c2.835,0 5.14,2.305 5.14,5.14l0,14.642c0,2.835 -2.305,5.141 -5.14,5.141Z" style="fill:#c9cfd2;fill-rule:nonzero;"/><path d="M357.138,200.255l-14.611,0c-2.835,0 -5.141,-2.306 -5.141,-5.141l0,-14.642c0,-2.835 2.306,-5.14 5.141,-5.14l14.611,0c2.835,0 5.14,2.305 5.14,5.14l0,14.642c0,2.835 -2.305,5.141 -5.14,5.141Z" style="fill:#c9cfd2;fill-rule:nonzero;"/><path d="M406.89,200.255l-27.104,0c-2.835,0 -5.14,-2.306 -5.14,-5.141l0,-14.642c0,-2.835 2.305,-5.14 5.14,-5.14l27.104,0c2.835,0 5.14,2.305 5.14,5.14l0,14.642c0,2.835 -2.305,5.141 -5.14,5.141Z" style="fill:#c9cfd2;fill-rule:nonzero;"/><path d="M392.248,237.608l14.611,0c2.835,0 5.14,-2.306 5.14,-5.141l0,-14.642c0,-2.835 -2.305,-5.14 -5.14,-5.14l-14.611,0c-2.835,0 -5.141,2.305 -5.141,5.14l0,14.642c0,2.835 2.306,5.141 5.141,5.141Z" style="fill:#c9cfd2;fill-rule:nonzero;"/><path d="M356.608,237.608l14.611,0c2.835,0 5.14,-2.306 5.14,-5.141l0,-14.642c0,-2.835 -2.305,-5.14 -5.14,-5.14l-14.611,0c-2.835,0 -5.14,2.305 -5.14,5.14l0,14.642c0,2.835 2.305,5.141 5.14,5.141Z" style="fill:#c9cfd2;fill-rule:nonzero;"/><path d="M320.968,237.608l14.611,0c2.835,0 5.141,-2.306 5.141,-5.141l0,-14.642c0,-2.835 -2.306,-5.14 -5.141,-5.14l-14.611,0c-2.835,0 -5.14,2.305 -5.14,5.14l0,14.642c0,2.835 2.305,5.141 5.14,5.141Z" style="fill:#c9cfd2;fill-rule:nonzero;"/><path d="M285.328,237.608l14.612,0c2.835,0 5.14,-2.306 5.14,-5.141l0,-14.642c0,-2.835 -2.305,-5.14 -5.14,-5.14l-14.612,0c-2.835,0 -5.14,2.305 -5.14,5.14l0,14.642c0,2.835 2.305,5.141 5.14,5.141Z" style="fill:#c9cfd2;fill-rule:nonzero;"/><path d="M249.689,237.608l14.611,0c2.835,0 5.14,-2.306 5.14,-5.141l0,-14.642c0,-2.835 -2.305,-5.14 -5.14,-5.14l-14.611,0c-2.835,0 -5.141,2.305 -5.141,5.14l0,14.642c0,2.835 2.306,5.141 5.141,5.141Z" style="fill:#c9cfd2;fill-rule:nonzero;"/><path d="M214.049,237.608l14.611,0c2.835,0 5.14,-2.306 5.14,-5.141l0,-14.642c0,-2.835 -2.305,-5.14 -5.14,-5.14l-14.611,0c-2.835,0 -5.14,2.305 -5.14,5.14l0,14.642c0,2.835 2.305,5.141 5.14,5.141Z" style="fill:#c9cfd2;fill-rule:nonzero;"/><path d="M178.409,237.608l14.611,0c2.835,0 5.141,-2.306 5.141,-5.141l0,-14.642c0,-2.835 -2.306,-5.14 -5.141,-5.14l-14.611,0c-2.835,0 -5.14,2.305 -5.14,5.14l0,14.642c0,2.835 2.305,5.141 5.14,5.141Z" style="fill:#c9cfd2;fill-rule:nonzero;"/><path d="M142.77,237.608l14.611,0c2.835,0 5.14,-2.306 5.14,-5.141l0,-14.642c0,-2.835 -2.305,-5.14 -5.14,-5.14l-14.611,0c-2.835,0 -5.141,2.305 -5.141,5.14l0,14.642c0,2.835 2.306,5.141 5.141,5.141Z" style="fill:#c9cfd2;fill-rule:nonzero;"/><path d="M93.017,237.608l27.104,0c2.835,0 5.14,-2.306 5.14,-5.141l0,-14.642c0,-2.835 -2.305,-5.14 -5.14,-5.14l-27.104,0c-2.835,0 -5.14,2.305 -5.14,5.14l0,14.642c0,2.835 2.305,5.141 5.14,5.141Z" style="fill:#c9cfd2;fill-rule:nonzero;"/><path d="M305.08,274.961l14.767,0c2.804,0 5.078,-2.274 5.078,-5.078l0,-14.767c0,-2.804 -2.274,-5.078 -5.078,-5.078l-14.767,0c-2.804,0 -5.078,2.274 -5.078,5.078l0,14.767c0,2.804 2.274,5.078 5.078,5.078Z" style="fill:#c9cfd2;fill-rule:nonzero;"/><path d="M267.664,274.961l14.767,0c2.804,0 5.078,-2.274 5.078,-5.078l0,-14.767c0,-2.804 -2.274,-5.078 -5.078,-5.078l-14.767,0c-2.803,0 -5.078,2.274 -5.078,5.078l0,14.767c0,2.804 2.275,5.078 5.078,5.078Z" style="fill:#c9cfd2;fill-rule:nonzero;"/><path d="M230.218,274.961l14.767,0c2.803,0 5.078,-2.274 5.078,-5.078l0,-14.767c0,-2.804 -2.275,-5.078 -5.078,-5.078l-14.767,0c-2.804,0 -5.078,2.274 -5.078,5.078l0,14.767c0,2.804 2.274,5.078 5.078,5.078Z" style="fill:#c9cfd2;fill-rule:nonzero;"/><path d="M192.802,274.961l14.767,0c2.804,0 5.078,-2.274 5.078,-5.078l0,-14.767c0,-2.804 -2.274,-5.078 -5.078,-5.078l-14.767,0c-2.804,0 -5.078,2.274 -5.078,5.078l0,14.767c0,2.804 2.274,5.078 5.078,5.078Z" style="fill:#c9cfd2;fill-rule:nonzero;"/><path d="M155.356,274.961l14.766,0c2.804,0 5.078,-2.274 5.078,-5.078l0,-14.767c0,-2.804 -2.274,-5.078 -5.078,-5.078l-14.766,0c-2.804,0 -5.078,2.274 -5.078,5.078l0,14.767c0,2.804 2.274,5.078 5.078,5.078Z" style="fill:#c9cfd2;fill-rule:nonzero;"/><path d="M93.017,274.961l39.41,0c2.834,0 5.14,-2.305 5.14,-5.14l0,-14.643c0,-2.834 -2.306,-5.14 -5.14,-5.14l-39.41,0c-2.835,0 -5.14,2.306 -5.14,5.14l0,14.643c0,2.866 2.305,5.14 5.14,5.14Z" style="fill:#c9cfd2;fill-rule:nonzero;"/><path d="M342.495,275.491l64.301,0c2.835,0 5.141,-2.306 5.141,-5.141l0,-15.67c0,-2.835 -2.306,-5.14 -5.141,-5.14l-64.301,0c-2.835,0 -5.14,2.305 -5.14,5.14l0,15.67c0,2.835 2.305,5.141 5.14,5.141Z" style="fill:#c9cfd2;fill-rule:nonzero;"/><path d="M392.248,312.345l14.642,0c2.835,0 5.14,-2.305 5.14,-5.14l0,-14.642c0,-2.835 -2.305,-5.141 -5.14,-5.141l-14.642,0c-2.835,0 -5.141,2.306 -5.141,5.141l0,14.642c0,2.835 2.306,5.14 5.141,5.14Z" style="fill:#c9cfd2;fill-rule:nonzero;"/><path d="M353.493,312.345l14.642,0c2.835,0 5.14,-2.305 5.14,-5.14l0,-14.642c0,-2.835 -2.305,-5.141 -5.14,-5.141l-14.642,0c-2.835,0 -5.141,2.306 -5.141,5.141l0,14.642c0,2.835 2.306,5.14 5.141,5.14Z" style="fill:#c9cfd2;fill-rule:nonzero;"/><path d="M170.527,312.345l158.853,0c2.835,0 5.14,-2.305 5.14,-5.14l0,-14.642c0,-2.835 -2.305,-5.141 -5.14,-5.141l-158.853,0c-2.835,0 -5.14,2.306 -5.14,5.141l0,14.642c0,2.835 2.305,5.14 5.14,5.14Z" style="fill:#c9cfd2;fill-rule:nonzero;"/><path d="M131.772,312.345l14.642,0c2.835,0 5.141,-2.305 5.141,-5.14l0,-14.642c0,-2.835 -2.306,-5.141 -5.141,-5.141l-14.642,0c-2.835,0 -5.14,2.306 -5.14,5.141l0,14.642c0,2.835 2.305,5.14 5.14,5.14Z" style="fill:#df5b57;fill-rule:nonzero;"/><path d="M93.017,312.345l14.642,0c2.835,0 5.141,-2.305 5.141,-5.14l0,-14.642c0,-2.835 -2.306,-5.141 -5.141,-5.141l-14.642,0c-2.835,0 -5.14,2.306 -5.14,5.141l0,14.642c0,2.835 2.305,5.14 5.14,5.14Z" style="fill:#c9cfd2;fill-rule:nonzero;"/></g></g></g></svg>