<?xml version="1.0" encoding="UTF-8" standalone="no"?><!DOCTYPE svg PUBLIC "-//W3C//DTD SVG 1.1//EN" "http://www.w3.org/Graphics/SVG/1.1/DTD/svg11.dtd"><svg width="100%" height="100%" viewBox="0 0 501 501" version="1.1" xmlns="http://www.w3.org/2000/svg" xmlns:xlink="http://www.w3.org/1999/xlink" xml:space="preserve" xmlns:serif="http://www.serif.com/" style="fill-rule:evenodd;clip-rule:evenodd;stroke-linejoin:round;stroke-miterlimit:2;"><rect id="linux-development" x="0.651" y="0.253" width="500" height="500" style="fill:none;"/><clipPath id="_clip1"><rect x="0.651" y="0.253" width="500" height="500"/></clipPath><g clip-path="url(#_clip1)"><rect x="0.651" y="0.253" width="500" height="500" style="fill:#fff;"/><circle cx="250.651" cy="250.253" r="250" style="fill:#8499a4;"/><g><path d="M152.052,210.756c3.49,-84.409 46.402,-113.389 98.752,-113.389c52.516,0 95.535,29.164 98.785,114.193c2.136,5.022 7.433,16.443 12.617,19.519c9.954,5.905 53.726,34.855 54.441,53.413c0.598,15.544 -21.04,-14.087 -47.429,-11.413c-0.15,0.016 -0.3,0.029 -0.448,0.041c0.3,3.013 0.46,6.045 0.46,9.09c0,50.364 -30.43,93.247 -72.3,111.848l-92.445,0c-41.695,-18.6 -71.781,-61.484 -71.781,-111.848c0,-3.032 0.146,-6.051 0.424,-9.049c-0.343,-0.019 -0.691,-0.046 -1.043,-0.082c-26.389,-2.674 -48.028,26.957 -47.429,11.413c0.715,-18.558 44.487,-47.508 54.44,-53.413c5.485,-3.253 11.095,-15.846 12.956,-20.323Z" style="fill:#103b50;"/><g><path d="M207.666,393.601c-30.916,-15.18 -51.867,-47.377 -51.867,-88.565c0,-38.313 18.578,-73.856 46.298,-93.545c-8.655,-6.998 -14.335,-18.725 -14.335,-31.999c0,-21.417 14.785,-38.804 32.995,-38.804c17.128,0 28.488,15.383 29.778,35.033c3.476,-12.888 16.531,-22.479 32.085,-22.479c18.21,0 32.994,13.146 32.994,29.337c0,12.762 -9.183,21.922 -21.989,25.231c30.785,18.7 51.89,56.39 51.89,97.226c0,41.188 -21.992,73.385 -53.511,88.565l-84.338,0Z" style="fill:#c9cfd2;"/><ellipse cx="235.191" cy="184.057" rx="10.311" ry="15.978" style="fill:#103b50;"/><ellipse cx="265.092" cy="184.057" rx="10.311" ry="15.978" style="fill:#103b50;"/><path d="M250.656,243.405c5.664,0 28.794,-22.92 28.252,-31.956c-0.723,-12.046 -57.225,-12.092 -56.503,0c0.542,9.088 22.588,31.956 28.251,31.956Z" style="fill:#df5b57;"/></g><g><path d="M224.881,403.139l-90.734,0c0,0 -14.764,-0.754 -14.435,-18.211c0.33,-17.458 25.442,-43.101 61.864,-41.088c36.422,2.014 60.316,14.794 61.864,36.522c1.548,21.728 -18.559,22.777 -18.559,22.777Z" style="fill:#103b50;"/><path d="M276.519,403.139l90.734,0c0,0 14.764,-0.754 14.435,-18.211c-0.33,-17.458 -25.442,-43.101 -61.864,-41.088c-36.423,2.014 -60.316,14.794 -61.864,36.522c-1.548,21.728 18.559,22.777 18.559,22.777Z" style="fill:#103b50;"/></g></g><g><rect x="224.408" y="262.579" width="25.026" height="25" style="fill:#df5b57;"/><rect x="251.882" y="262.579" width="25.026" height="25" style="fill:#103b50;"/><rect x="224.408" y="290.079" width="25.026" height="25" style="fill:#103b50;"/><rect x="251.882" y="290.079" width="25.026" height="25" style="fill:#103b50;"/></g></g></svg>