<?xml version="1.0" encoding="UTF-8" standalone="no"?><!DOCTYPE svg PUBLIC "-//W3C//DTD SVG 1.1//EN" "http://www.w3.org/Graphics/SVG/1.1/DTD/svg11.dtd"><svg width="100%" height="100%" viewBox="0 0 501 501" version="1.1" xmlns="http://www.w3.org/2000/svg" xmlns:xlink="http://www.w3.org/1999/xlink" xml:space="preserve" xmlns:serif="http://www.serif.com/" style="fill-rule:evenodd;clip-rule:evenodd;stroke-linejoin:round;stroke-miterlimit:2;"><rect id="Mac-A-Like" x="0.798" y="0.253" width="500" height="500" style="fill:none;"/><clipPath id="_clip1"><rect x="0.798" y="0.253" width="500" height="500"/></clipPath><g clip-path="url(#_clip1)"><rect x="0.798" y="0.253" width="500" height="500" style="fill:#fff;"/><circle cx="250.798" cy="250.253" r="250" style="fill:#8499a4;"/><clipPath id="_clip2"><circle cx="250.798" cy="250.253" r="250"/></clipPath><g clip-path="url(#_clip2)"><path d="M347.72,201.652l-171.738,166.149l215.806,208.784l171.738,-166.149l-215.806,-208.784Z" style="fill:#103b50;"/><path d="M302.768,112.753l-54.199,66.934l302.23,268.861l49.53,-47.917l-297.561,-287.878Z" style="fill:#103b50;"/></g><g><path d="M283.604,164.975c6.942,-6.939 12.065,-14.538 15.371,-22.802c3.195,-8.264 4.793,-15.754 4.793,-22.478c0,-0.437 -0.028,-0.995 -0.083,-1.653c-0.058,-0.658 -0.082,-1.205 -0.082,-1.653c-0.111,-0.33 -0.248,-0.936 -0.414,-1.821c-0.165,-0.878 -0.302,-1.484 -0.413,-1.815c-19.392,4.518 -33.163,12.672 -41.315,24.461c-8.264,11.897 -12.562,26.056 -12.892,42.473c7.379,-0.664 13.108,-1.594 17.188,-2.806c5.95,-1.989 11.897,-5.953 17.847,-11.906Z" style="fill:#df5b57;fill-rule:nonzero;"/><path d="M339.795,292.728c-7.603,-10.902 -11.404,-23.188 -11.404,-36.857c0,-12.448 3.578,-23.849 10.743,-34.209c3.856,-5.617 10.137,-12.118 18.841,-19.503c-5.729,-7.049 -11.459,-12.555 -17.188,-16.528c-10.358,-7.153 -22.093,-10.743 -35.202,-10.743c-7.823,0 -17.353,1.88 -28.592,5.623c-10.799,3.749 -18.677,5.616 -23.632,5.616c-3.746,0 -11.349,-1.653 -22.808,-4.958c-11.57,-3.306 -21.318,-4.959 -29.252,-4.959c-18.951,0 -34.597,7.934 -46.935,23.803c-12.451,16.087 -18.676,36.689 -18.676,61.808c0,26.662 8.098,54.37 24.296,83.131c16.414,28.535 32.997,42.801 49.745,42.801c5.619,0 12.888,-1.873 21.813,-5.616c8.925,-3.636 16.745,-5.454 23.467,-5.454c7.162,0 15.478,1.763 24.956,5.286c10.024,3.526 17.737,5.286 23.136,5.286c14.101,0 28.26,-10.796 42.473,-32.389c9.256,-13.77 16.033,-27.546 20.33,-41.316c-9.806,-2.972 -18.508,-9.914 -26.111,-20.822Z" style="fill:#df5b57;fill-rule:nonzero;"/><clipPath id="_clip3"><path d="M339.795,292.728c-7.603,-10.902 -11.404,-23.188 -11.404,-36.857c0,-12.448 3.578,-23.849 10.743,-34.209c3.856,-5.617 10.137,-12.118 18.841,-19.503c-5.729,-7.049 -11.459,-12.555 -17.188,-16.528c-10.358,-7.153 -22.093,-10.743 -35.202,-10.743c-7.823,0 -17.353,1.88 -28.592,5.623c-10.799,3.749 -18.677,5.616 -23.632,5.616c-3.746,0 -11.349,-1.653 -22.808,-4.958c-11.57,-3.306 -21.318,-4.959 -29.252,-4.959c-18.951,0 -34.597,7.934 -46.935,23.803c-12.451,16.087 -18.676,36.689 -18.676,61.808c0,26.662 8.098,54.37 24.296,83.131c16.414,28.535 32.997,42.801 49.745,42.801c5.619,0 12.888,-1.873 21.813,-5.616c8.925,-3.636 16.745,-5.454 23.467,-5.454c7.162,0 15.478,1.763 24.956,5.286c10.024,3.526 17.737,5.286 23.136,5.286c14.101,0 28.26,-10.796 42.473,-32.389c9.256,-13.77 16.033,-27.546 20.33,-41.316c-9.806,-2.972 -18.508,-9.914 -26.111,-20.822Z" clip-rule="nonzero"/></clipPath><g clip-path="url(#_clip3)"><path d="M154.578,174.888l-136.745,136.746l256.679,256.68l136.746,-136.746l-256.68,-256.68Z" style="fill:#e47370;"/></g><g><rect x="222.503" y="248.831" width="26.5" height="26.5" style="fill:#c9cfd2;"/><rect x="252.593" y="248.831" width="26.5" height="26.5" style="fill:#103b50;"/><rect x="222.503" y="278.95" width="26.5" height="26.5" style="fill:#103b50;"/><rect x="252.593" y="278.95" width="26.5" height="26.5" style="fill:#103b50;"/></g></g></g></svg>