<?xml version="1.0" encoding="UTF-8" standalone="no"?><!DOCTYPE svg PUBLIC "-//W3C//DTD SVG 1.1//EN" "http://www.w3.org/Graphics/SVG/1.1/DTD/svg11.dtd"><svg width="100%" height="100%" viewBox="0 0 501 501" version="1.1" xmlns="http://www.w3.org/2000/svg" xmlns:xlink="http://www.w3.org/1999/xlink" xml:space="preserve" xmlns:serif="http://www.serif.com/" style="fill-rule:evenodd;clip-rule:evenodd;stroke-linecap:round;stroke-linejoin:round;"><rect id="over" x="0.28" y="0.423" width="500" height="500" style="fill:none;"/><clipPath id="_clip1"><rect x="0.28" y="0.423" width="500" height="500"/></clipPath><g clip-path="url(#_clip1)"><circle cx="250.28" cy="250.423" r="250" style="fill:#103b50;"/><clipPath id="_clip2"><circle cx="250.28" cy="250.423" r="250"/></clipPath><g clip-path="url(#_clip2)"><path d="M74.318,53.157l-197.267,197.266l388.513,388.513l197.267,-197.267l-388.513,-388.512Z" style="fill:#34596b;"/></g><g><circle cx="250.28" cy="250.423" r="137.5" style="fill:#d4d9db;"/><path d="M386.385,230.785c0.919,6.414 1.395,12.971 1.395,19.638c0,75.888 -61.612,137.5 -137.5,137.5c-75.889,0 -137.5,-61.612 -137.5,-137.5c0,-3.229 0.111,-6.433 0.331,-9.607c35.17,30.545 81.076,49.043 131.269,49.043c55.473,0 105.711,-22.594 142.005,-59.074Z" style="fill:#8499a4;stroke:#103b50;stroke-width:7.26px;"/><g><ellipse cx="198.787" cy="232.663" rx="22.132" ry="14.161" style="fill:#103b50;"/><ellipse cx="301.772" cy="232.663" rx="22.132" ry="14.161" style="fill:#103b50;"/></g><path d="M364.566,173.989c14.66,21.863 23.214,48.158 23.214,76.434c0,75.888 -61.612,137.5 -137.5,137.5c-22.234,0 -43.243,-5.289 -61.836,-14.676c88.653,-30.581 156.45,-106.09 176.122,-199.258Z" style="fill:#8499a4;stroke:#103b50;stroke-width:7.26px;"/><path d="M274.365,385.816c-7.821,1.385 -15.87,2.107 -24.085,2.107c-75.889,0 -137.5,-61.612 -137.5,-137.5c0,-75.888 61.611,-137.5 137.5,-137.5c8.215,0 16.264,0.722 24.085,2.107c-64.422,11.401 -113.415,67.721 -113.415,135.393c0,67.673 48.993,123.993 113.415,135.393Z" style="fill:#8499a4;stroke:#103b50;stroke-width:7.26px;"/><path d="M126.943,189.614c22.458,-45.423 69.275,-76.691 123.337,-76.691c75.888,0 137.5,61.612 137.5,137.5c0,2.569 -0.071,5.122 -0.211,7.656c-42.04,-51.319 -105.898,-84.09 -177.35,-84.09c-29.371,0 -57.459,5.537 -83.276,15.625Z" style="fill:#8499a4;stroke:#103b50;stroke-width:7.26px;"/></g></g></svg>