<?xml version="1.0" encoding="UTF-8" standalone="no"?><!DOCTYPE svg PUBLIC "-//W3C//DTD SVG 1.1//EN" "http://www.w3.org/Graphics/SVG/1.1/DTD/svg11.dtd"><svg width="100%" height="100%" viewBox="0 0 501 501" version="1.1" xmlns="http://www.w3.org/2000/svg" xmlns:xlink="http://www.w3.org/1999/xlink" xml:space="preserve" xmlns:serif="http://www.serif.com/" style="fill-rule:evenodd;clip-rule:evenodd;stroke-linejoin:round;stroke-miterlimit:2;"><rect id="Security" x="0.224" y="0.253" width="500" height="500" style="fill:none;"/><clipPath id="_clip1"><rect x="0.224" y="0.253" width="500" height="500"/></clipPath><g clip-path="url(#_clip1)"><circle cx="250.224" cy="250.253" r="250" style="fill:#8499a4;"/><clipPath id="_clip2"><circle cx="250.224" cy="250.253" r="250"/></clipPath><g clip-path="url(#_clip2)"><path d="M235.495,243.652l-29.284,157.649l221.807,202.784l171.737,-166.149l-364.26,-194.284Z" style="fill:#103b50;"/><path d="M329.195,98.753l3.3,215.234l217.731,134.561l49.529,-47.917l-270.56,-301.878Z" style="fill:#103b50;"/></g><g><path d="M295.426,192.396c0,-14.98 -12.14,-27.12 -27.12,-27.12l-191.649,0c-14.98,0 -27.12,12.14 -27.12,27.12c0,14.98 12.14,27.119 27.12,27.119l191.649,0c14.98,0 27.12,-12.139 27.12,-27.119Z" style="fill:#c9cfd2;fill-rule:nonzero;"/><clipPath id="_clip3"><path d="M295.426,192.396c0,-14.98 -12.14,-27.12 -27.12,-27.12l-191.649,0c-14.98,0 -27.12,12.14 -27.12,27.12c0,14.98 12.14,27.119 27.12,27.119l191.649,0c14.98,0 27.12,-12.139 27.12,-27.119Z" clip-rule="nonzero"/></clipPath><g clip-path="url(#_clip3)"><path d="M133.207,72.115l-186.322,186.323l287.038,287.038l186.322,-186.323l-287.038,-287.038Z" style="fill:#d4d9db;"/></g><path d="M304.293,87.535c19.566,0 35.425,15.858 35.425,35.425l0,254.587c0,19.566 -15.859,35.425 -35.425,35.425l-71.984,0c-19.567,0 -35.425,-15.859 -35.425,-35.425l0,-141.759l71.422,0c23.964,0 43.392,-19.429 43.392,-43.391c0,-23.963 -19.429,-43.392 -43.392,-43.392l-71.422,0l0,-26.045c0,-19.567 15.858,-35.425 35.425,-35.425l71.984,0Z" style="fill:#c9cfd2;fill-rule:nonzero;"/><clipPath id="_clip4"><path d="M304.293,87.535c19.566,0 35.425,15.858 35.425,35.425l0,254.587c0,19.566 -15.859,35.425 -35.425,35.425l-71.984,0c-19.567,0 -35.425,-15.859 -35.425,-35.425l0,-141.759l71.422,0c23.964,0 43.392,-19.429 43.392,-43.391c0,-23.963 -19.429,-43.392 -43.392,-43.392l-71.422,0l0,-26.045c0,-19.567 15.858,-35.425 35.425,-35.425l71.984,0Z" clip-rule="nonzero"/></clipPath><g clip-path="url(#_clip4)"><path d="M133.207,72.115l-186.322,186.323l287.038,287.038l186.322,-186.323l-287.038,-287.038Z" style="fill:#d4d9db;"/></g></g><g><path d="M276.598,309.295c0,-4.418 -3.582,-8 -8,-8c0,0 0,0 0,0c-4.418,0 -8,3.582 -8,8c0,1.317 0,2.683 0,4c0,4.419 3.582,8 8,8c0,0 0,0 0,0c4.418,0 8,-3.581 8,-8c0,-1.317 0,-2.683 0,-4Z" style="fill:#df5b57;"/><path d="M276.598,284.295c0,-4.418 -3.582,-8 -8,-8c0,0 0,0 0,0c-4.418,0 -8,3.582 -8,8c0,1.317 0,2.683 0,4c0,4.419 3.582,8 8,8c0,0 0,0 0,0c4.418,0 8,-3.581 8,-8c0,-1.317 0,-2.683 0,-4Z" style="fill:#df5b57;"/><path d="M276.598,334.295c0,-4.418 -3.582,-8 -8,-8c0,0 0,0 0,0c-4.418,0 -8,3.582 -8,8c0,1.317 0,2.683 0,4c0,4.419 3.582,8 8,8c0,0 0,0 0,0c4.418,0 8,-3.581 8,-8c0,-1.317 0,-2.683 0,-4Z" style="fill:#df5b57;"/><path d="M276.761,359.295c0,-4.418 -3.582,-8 -8,-8c0,0 0,0 0,0c-4.418,0 -8,3.582 -8,8c0,1.317 0,2.683 0,4c0,4.419 3.582,8 8,8c0,0 0,0 0,0c4.418,0 8,-3.581 8,-8c0,-1.317 0,-2.683 0,-4Z" style="fill:#df5b57;"/><path d="M250.521,309.295c0,-4.418 -3.581,-8 -8,-8c0,0 0,0 0,0c-4.418,0 -8,3.582 -8,8c0,1.317 0,2.683 0,4c0,4.419 3.582,8 8,8c0,0 0,0 0,0c4.419,0 8,-3.581 8,-8c0,-1.317 0,-2.683 0,-4Z" style="fill:#df5b57;"/><path d="M250.521,284.295c0,-4.418 -3.581,-8 -8,-8c0,0 0,0 0,0c-4.418,0 -8,3.582 -8,8c0,1.317 0,2.683 0,4c0,4.419 3.582,8 8,8c0,0 0,0 0,0c4.419,0 8,-3.581 8,-8c0,-1.317 0,-2.683 0,-4Z" style="fill:#df5b57;"/><path d="M250.521,334.295c0,-4.418 -3.581,-8 -8,-8c0,0 0,0 0,0c-4.418,0 -8,3.582 -8,8c0,1.317 0,2.683 0,4c0,4.419 3.582,8 8,8c0,0 0,0 0,0c4.419,0 8,-3.581 8,-8c0,-1.317 0,-2.683 0,-4Z" style="fill:#df5b57;"/><path d="M250.685,359.295c0,-4.418 -3.582,-8 -8,-8c0,0 0,0 0,0c-4.419,0 -8,3.582 -8,8c0,1.317 0,2.683 0,4c0,4.419 3.581,8 8,8c0,0 0,0 0,0c4.418,0 8,-3.581 8,-8c0,-1.317 0,-2.683 0,-4Z" style="fill:#df5b57;"/><path d="M302.348,309.295c0,-4.418 -3.582,-8 -8,-8c0,0 0,0 0,0c-4.418,0 -8,3.582 -8,8c0,1.317 0,2.683 0,4c0,4.419 3.582,8 8,8c0,0 0,0 0,0c4.418,0 8,-3.581 8,-8c0,-1.317 0,-2.683 0,-4Z" style="fill:#df5b57;"/><path d="M302.348,284.295c0,-4.418 -3.582,-8 -8,-8c0,0 0,0 0,0c-4.418,0 -8,3.582 -8,8c0,1.317 0,2.683 0,4c0,4.419 3.582,8 8,8c0,0 0,0 0,0c4.418,0 8,-3.581 8,-8c0,-1.317 0,-2.683 0,-4Z" style="fill:#df5b57;"/><path d="M302.348,334.295c0,-4.418 -3.582,-8 -8,-8c0,0 0,0 0,0c-4.418,0 -8,3.582 -8,8c0,1.317 0,2.683 0,4c0,4.419 3.582,8 8,8c0,0 0,0 0,0c4.418,0 8,-3.581 8,-8c0,-1.317 0,-2.683 0,-4Z" style="fill:#df5b57;"/><path d="M302.511,359.295c0,-4.418 -3.582,-8 -8,-8c0,0 0,0 0,0c-4.418,0 -8,3.582 -8,8c0,1.317 0,2.683 0,4c0,4.419 3.582,8 8,8c0,0 0,0 0,0c4.418,0 8,-3.581 8,-8c0,-1.317 0,-2.683 0,-4Z" style="fill:#df5b57;"/></g></g></svg>