<?xml version="1.0" encoding="UTF-8" standalone="no"?><!DOCTYPE svg PUBLIC "-//W3C//DTD SVG 1.1//EN" "http://www.w3.org/Graphics/SVG/1.1/DTD/svg11.dtd"><svg width="100%" height="100%" viewBox="0 0 501 501" version="1.1" xmlns="http://www.w3.org/2000/svg" xmlns:xlink="http://www.w3.org/1999/xlink" xml:space="preserve" xmlns:serif="http://www.serif.com/" style="fill-rule:evenodd;clip-rule:evenodd;stroke-linejoin:round;stroke-miterlimit:2;"><rect id="Settings" x="0.798" y="0.906" width="500" height="500" style="fill:none;"/><clipPath id="_clip1"><rect x="0.798" y="0.906" width="500" height="500"/></clipPath><g clip-path="url(#_clip1)"><circle cx="250.798" cy="250.906" r="250" style="fill:#8499a4;"/><clipPath id="_clip2"><circle cx="250.798" cy="250.906" r="250"/></clipPath><g clip-path="url(#_clip2)"><path d="M222.687,155.511l-70.224,70.224l76.722,76.722l70.224,-70.224l-76.722,-76.722Z" style="fill:#103b50;"/><path d="M387.533,178.777l-210.254,210.253l263.192,263.192l210.254,-210.254l-263.192,-263.191Z" style="fill:#103b50;"/><path d="M302.445,155.511l-150,150l231.502,231.502l150,-150l-231.502,-231.502Z" style="fill:#103b50;"/></g><g><rect x="152.445" y="155.511" width="70.242" height="70.206" style="fill:#df5b57;"/><rect x="232.203" y="155.511" width="70.242" height="70.206" style="fill:#416273;"/><rect x="152.445" y="235.305" width="70.242" height="70.206" style="fill:#416273;"/><rect x="232.203" y="235.305" width="70.242" height="70.206" style="fill:#416273;"/></g><g><path d="M253.907,291.078l-0.006,-0.005l62.66,-62.657c-1.775,-14.457 2.891,-29.551 13.994,-40.654c15.419,-15.419 38.555,-18.416 56.978,-8.985l-32.985,32.981l14.167,14.165l-140.29,148.29l-18.164,-18.164l-32.982,32.981c-9.427,-18.418 -6.431,-41.555 8.986,-56.978l0,0l0.001,-0.001l0.002,-0.002l0,0c11.102,-11.097 26.194,-15.761 40.653,-13.987l26.986,-26.984Z" style="fill:#c9cfd2;fill-rule:nonzero;"/><path d="M375.88,233.088l32.982,-32.982c9.426,18.418 6.431,41.555 -8.986,56.978l0,0l-0.003,0.003l0,0c-11.103,11.1 -26.195,15.765 -40.653,13.987l-55.486,55.485l0.004,0.006l-34.159,34.159c1.775,14.457 -2.89,29.547 -13.993,40.65c-15.42,15.419 -38.556,18.416 -56.978,8.989l32.985,-32.985l-10.668,-10.665l64.834,-64.833l0.014,0.019l79.442,-79.476l10.665,10.665Z" style="fill:#8499a4;fill-rule:nonzero;"/></g></g></svg>