<?xml version="1.0" encoding="UTF-8" standalone="no"?><!DOCTYPE svg PUBLIC "-//W3C//DTD SVG 1.1//EN" "http://www.w3.org/Graphics/SVG/1.1/DTD/svg11.dtd"><svg width="100%" height="100%" viewBox="0 0 501 501" version="1.1" xmlns="http://www.w3.org/2000/svg" xmlns:xlink="http://www.w3.org/1999/xlink" xml:space="preserve" xmlns:serif="http://www.serif.com/" style="fill-rule:evenodd;clip-rule:evenodd;stroke-linejoin:round;stroke-miterlimit:2;"><rect id="Hardware-2" serif:id="Hardware 2" x="0.371" y="0.253" width="500" height="500" style="fill:none;"/><clipPath id="_clip1"><rect x="0.371" y="0.253" width="500" height="500"/></clipPath><g clip-path="url(#_clip1)"><circle cx="250.371" cy="250.253" r="250" style="fill:#8499a4;"/><clipPath id="_clip2"><circle cx="250.371" cy="250.253" r="250"/></clipPath><g clip-path="url(#_clip2)"><path d="M341.974,135.505l-238.429,230.671l252.652,244.43l238.428,-230.67l-252.651,-244.431Z" style="fill:#103b50;"/><path d="M371.086,134.215l-235.267,227.611l250.007,241.87l235.266,-227.61l-250.006,-241.871Z" style="fill:#103b50;"/></g><g><path d="M244.735,369.347c-25.141,-0.025 -126.091,-0.117 -132.261,0.006c-7.238,0.144 -14.523,-6.254 -12.536,-12.536c1.854,-5.862 26.448,-65.856 26.448,-65.856c0,0 -1.387,-141.595 -1.376,-147.208c0.013,-6.47 5.847,-12.429 12.536,-12.536c6.903,-0.111 112.825,-0.049 112.825,-0.049l4.565,-0.003c20.368,-0.01 102.219,-0.045 108.259,0.052c6.69,0.107 12.523,6.066 12.536,12.536c0.012,5.613 -1.376,147.208 -1.376,147.208c0,0 24.595,59.994 26.449,65.856c1.987,6.282 -5.298,12.68 -12.536,12.536c-7.052,-0.14 -137.897,0 -137.897,0l-5.636,-0.006Z" style="fill:#c9cfd2;"/><clipPath id="_clip3"><path d="M244.735,369.347c-25.141,-0.025 -126.091,-0.117 -132.261,0.006c-7.238,0.144 -14.523,-6.254 -12.536,-12.536c1.854,-5.862 26.448,-65.856 26.448,-65.856c0,0 -1.387,-141.595 -1.376,-147.208c0.013,-6.47 5.847,-12.429 12.536,-12.536c6.903,-0.111 112.825,-0.049 112.825,-0.049l4.565,-0.003c20.368,-0.01 102.219,-0.045 108.259,0.052c6.69,0.107 12.523,6.066 12.536,12.536c0.012,5.613 -1.376,147.208 -1.376,147.208c0,0 24.595,59.994 26.449,65.856c1.987,6.282 -5.298,12.68 -12.536,12.536c-7.052,-0.14 -137.897,0 -137.897,0l-5.636,-0.006Z"/></clipPath><g clip-path="url(#_clip3)"><path d="M250.871,164.127l-124.789,124.788l246.046,246.046l124.789,-124.788l-246.046,-246.046Z" style="fill:#103b50;fill-opacity:0.15;"/></g><path d="M200.226,363.085l12.537,-31.34l75.216,0l12.536,31.34l-100.289,0Z" style="fill:#df5b57;"/><path d="M368.156,282.076l-235.57,0c0,0 -1.319,-129.236 -1.308,-134.359c0.013,-5.905 5.554,-11.344 11.909,-11.442c6.558,-0.101 107.184,-0.045 107.184,-0.045l4.336,-0.002c19.35,-0.009 97.109,-0.041 102.847,0.047c6.355,0.098 11.897,5.537 11.909,11.442c0.011,5.123 -1.307,134.359 -1.307,134.359Z" style="fill:#103b50;"/></g></g></svg>